<svg id="a3610f85-a50b-4013-a1a4-50edcb68e5eb" data-name="Capa 1" xmlns="http://www.w3.org/2000/svg" xmlns:xlink="http://www.w3.org/1999/xlink" viewBox="0 0 128 128"><defs><style>.f6d42949-98b3-41d9-be5c-ac78143d983d{fill:url(#e3999618-b752-41c8-b88a-9f2fffc6078b);}.b516956e-fdf2-4213-890a-da6dadc71000{fill:#2f3548;}.b39b603e-17c1-48ae-920a-d49a0ca64313{fill:#faf8fa;}</style><linearGradient id="e3999618-b752-41c8-b88a-9f2fffc6078b" x1="28.4" y1="11.38" x2="98.88" y2="81.86" gradientUnits="userSpaceOnUse"><stop offset="0.15" stop-color="#6866ab"/><stop offset="0.59" stop-color="#9d74af"/></linearGradient></defs><path class="f6d42949-98b3-41d9-be5c-ac78143d983d" d="M35.68,8.16c-5.88.54-8.75,3-10.25,8.63-.05.24-.54,8.06-.51,11.73.13,14-.05,28.41.35,42.12.24,8.68,2.82,14.94,10.29,15.25,6.61.28,43.44,0,55.22.1,7.93.05,12.31-4.45,12.34-12.5.06-13.93-.36-45.69-.35-51.53,0-7.35-3.37-12.72-8.26-13.56-2.72-.47-4.92-.2-8.28-.17Z"/><path class="b516956e-fdf2-4213-890a-da6dadc71000" d="M2.92,109.52c0-1.7-.06-3.41,0-5.11.32-7.62,7.31-12.41,14.38-9.67a6.38,6.38,0,0,0,5.17,0c7.1-2.77,14.11,1.94,14.42,9.58.16,3.69,0,7.39,0,11.09,0,2.61-1,4.61-3.82,4.7-2.95.1-4.29-1.83-4.34-4.66,0-2.56.1-5.13-.06-7.68-.12-2.06,1-5.34-2.4-5.32-3.08,0-2,3.14-2.17,5.1-.13,1.41,0,2.84-.1,4.26-.22,2.61-1.55,4.36-4.32,4.25-2.51-.09-3.79-1.76-3.91-4.21-.11-2.13-.06-4.26-.09-6.39,0-1.52-.29-3-2.13-3.11-2.07-.07-2.49,1.53-2.5,3.22q0,4.7,0,9.38c0,3-1,5.21-4.28,5.14-3.06-.06-3.93-2.31-3.88-5.05C2.94,113.22,2.91,111.37,2.92,109.52Z"/><path class="b516956e-fdf2-4213-890a-da6dadc71000" d="M66,107.05c0,2.85.15,5.71,0,8.54-.23,3.61-2.31,5.18-5.74,4.07-1.7-.56-3-.07-4.53.22-7.4,1.4-14.29-3.27-15.27-10.69a67.54,67.54,0,0,1-.22-10.65c.07-2.41,1.41-4.08,4-4.13s4,1.57,4.15,4c.21,2.84.11,5.69.17,8.54.07,3,1.56,4.94,4.68,4.88,2.87-.06,4.34-1.89,4.41-4.73s0-5.7.09-8.54C57.77,96,59,94,61.79,94s4.06,1.85,4.15,4.47C66,101.36,66,104.21,66,107.05Z"/><path class="b516956e-fdf2-4213-890a-da6dadc71000" d="M125.11,106.9A13.13,13.13,0,1,1,111.92,94,13.26,13.26,0,0,1,125.11,106.9Zm-8.3.11c-.35-3-2-4.82-5-4.75a4.45,4.45,0,0,0-4.67,4.9c0,3,1.93,4.71,4.89,4.65S116.6,109.91,116.81,107Z"/><path class="b516956e-fdf2-4213-890a-da6dadc71000" d="M69.56,106.77c0-2.85-.08-5.7,0-8.54s1.9-4.78,4.7-4a14,14,0,0,0,6.19-.08,12.74,12.74,0,0,1,14,8.63c1.34,4.44.79,9.06.56,13.58-.12,2.25-1.92,3.56-4.19,3.41a3.77,3.77,0,0,1-3.75-3.9c-.12-2.7,0-5.41-.08-8.11,0-3.11-1.39-5.44-4.71-5.43s-4.65,2.29-4.64,5.45c0,2.7.07,5.41,0,8.11s-1.65,4.33-4.34,4.2c-2.5-.13-3.75-1.83-3.76-4.33C69.54,112.74,69.56,109.76,69.56,106.77Z"/><path class="b39b603e-17c1-48ae-920a-d49a0ca64313" d="M61.57,75.25,59,75c-4.88-.47-7.06-2.34-7.13-6.13s2-5.58,7-6.3c3.53.08,7.06.22,10.59.23,9.06,0,11.27,1.13,11.43,5.87.16,4.55-3,6.21-11.73,6.24C66.64,74.92,64.11,75.13,61.57,75.25Z"/><path class="b39b603e-17c1-48ae-920a-d49a0ca64313" d="M50.34,48c3.92.5,8.57-1,10.84,4,1,3.63-.74,6.12-3.48,8.16A215.53,215.53,0,0,1,36,60.1c-3-2.06-4.56-5-3.22-8.39s4.63-3.59,7.83-3.56S47.09,48.08,50.34,48Z"/><path class="b39b603e-17c1-48ae-920a-d49a0ca64313" d="M68.56,44.66c-1.85-2.37-2.88-4.91-1.42-7.84s4.29-3.21,7.23-3.17c5.66.08,11.32,0,17,0,3.22.24,5.49,3.1,3.75,8.09-1.3,3.75-4.57,4.3-8,4C80.9,45.37,74.61,46.9,68.56,44.66Z"/><path class="b39b603e-17c1-48ae-920a-d49a0ca64313" d="M83.54,63c0-2.84-.08-5.69,0-8.53.14-3.68,2.07-5.91,5.8-6.06a5.42,5.42,0,0,1,6,5.35,150.56,150.56,0,0,1,0,17.9c-.22,3.9-3.12,5.66-7.29,5.39-3.85-.26-4.5-2.89-4.58-5.94C83.47,68.37,83.53,65.66,83.54,63Z"/><path class="b39b603e-17c1-48ae-920a-d49a0ca64313" d="M72.52,48.33a6.1,6.1,0,0,1,6,5.85,6,6,0,1,1-12,0A5.85,5.85,0,0,1,72.52,48.33Z"/><path class="b39b603e-17c1-48ae-920a-d49a0ca64313" d="M74.27,20.3c3.74,6.43,1.31,10.83-6,10.93-2,0-4,.14-5.93.22-3.4-.11-6.81-.07-10.19-.37s-5.73-2.3-5.79-5.65a6,6,0,0,1,5.3-6.21A98.16,98.16,0,0,1,72,19.2,7.59,7.59,0,0,1,74.27,20.3Z"/><path class="b39b603e-17c1-48ae-920a-d49a0ca64313" d="M44.52,31.35c0,2.7.1,5.4,0,8.1-.19,3.86-3.4,7.29-6.47,7.1-2.32-.15-5.44-4.11-5.63-7.21-.34-5.49-.66-11.42-.61-16.49,0-2.55,3.1-5.77,6-6.08A5.68,5.68,0,0,1,44.38,22c.26,3.1.06,6.24.06,9.37Z"/><path class="b39b603e-17c1-48ae-920a-d49a0ca64313" d="M60.58,35.82c1.26,2.87,1.69,5.8-.76,8.19s-5.52,2.3-8.55.92c-2.25-2.93-4-5.77-.48-9.13C53.73,33,56.35,32.9,60.58,35.82Z"/></svg>